<svg xmlns="http://www.w3.org/2000/svg" version="1.1" xmlns:xlink="http://www.w3.org/1999/xlink" xmlns:svgjs="http://svgjs.com/svgjs" width="512" height="512" x="0" y="0" viewBox="0 0 32 32" style="enable-background:new 0 0 512 512" xml:space="preserve"><g><linearGradient id="a" x1="16.467" x2="15.51" y1=".391" y2="32.377" gradientUnits="userSpaceOnUse"><stop offset="0" stop-color="#fef"></stop><stop offset="1" stop-color="#ffc1f9"></stop></linearGradient><linearGradient id="b" x1="16.023" x2="15.959" y1="27.34" y2="5.893" gradientUnits="userSpaceOnUse"><stop offset="0" stop-color="#f884ff"></stop><stop offset="1" stop-color="#b242ff"></stop></linearGradient><circle cx="16" cy="16" r="16" fill="url(#a)" data-original="url(#a)"></circle><path fill="url(#b)" d="M21.96 18.036a2.617 2.617 0 0 0-3.205-.176V7.754a2.755 2.755 0 0 0-5.509 0V17.86a2.619 2.619 0 0 0-3.206.177 2.659 2.659 0 0 0-.179 3.813L14 26.153a2.777 2.777 0 0 0 3.993 0l4.143-4.3a2.655 2.655 0 0 0-.176-3.817z" data-original="url(#b)"></path></g></svg>