<svg xmlns="http://www.w3.org/2000/svg" xmlns:xlink="http://www.w3.org/1999/xlink" version="1.1" width="256" height="256" viewBox="0 0 256 256" xml:space="preserve">

<defs>
</defs>
<g style="stroke: none; stroke-width: 0; stroke-dasharray: none; stroke-linecap: butt; stroke-linejoin: miter; stroke-miterlimit: 10; fill: none; fill-rule: nonzero; opacity: 1;" transform="translate(1.4065934065934016 1.4065934065934016) scale(2.81 2.81)" >
	<path d="M 30.487 52.306 c 0 8.002 6.51 14.513 14.513 14.513 c 8.002 0 14.513 -6.511 14.513 -14.513 v -6.878 H 30.487 V 52.306 z M 42 51.925 c 0 -1.657 1.343 -3 3 -3 c 1.657 0 3 1.343 3 3 v 5.246 c 0 1.657 -1.343 3 -3 3 c -1.657 0 -3 -1.343 -3 -3 V 51.925 z" style="stroke: none; stroke-width: 1; stroke-dasharray: none; stroke-linecap: butt; stroke-linejoin: miter; stroke-miterlimit: 10; fill: rgb(0,0,0); fill-rule: nonzero; opacity: 1;" transform=" matrix(1 0 0 1 0 0) " stroke-linecap="round" />
	<path d="M 45 0 C 20.187 0 0 20.187 0 45 c 0 24.813 20.187 45 45 45 c 24.813 0 45 -20.187 45 -45 C 90 20.187 69.813 0 45 0 z M 45 17.182 c 8.696 0 15.771 7.075 15.771 15.771 c 0 1.657 -1.343 3 -3 3 s -3 -1.343 -3 -3 c 0 -5.388 -4.383 -9.771 -9.771 -9.771 s -9.771 4.383 -9.771 9.771 c 0 1.657 -1.343 3 -3 3 s -3 -1.343 -3 -3 C 29.229 24.256 36.304 17.182 45 17.182 z M 65.513 52.306 c 0 11.311 -9.202 20.513 -20.513 20.513 s -20.513 -9.202 -20.513 -20.513 v -9.878 c 0 -1.657 1.343 -3 3 -3 h 35.025 c 1.657 0 3 1.343 3 3 V 52.306 z" style="stroke: none; stroke-width: 1; stroke-dasharray: none; stroke-linecap: butt; stroke-linejoin: miter; stroke-miterlimit: 10; fill: rgb(0,0,0); fill-rule: nonzero; opacity: 1;" transform=" matrix(1 0 0 1 0 0) " stroke-linecap="round" />
</g>
</svg>